<mxfile host="app.diagrams.net" modified="2023-04-15T19:51:53.255Z" agent="Mozilla/5.0 (Windows NT 10.0; Win64; x64) AppleWebKit/537.36 (KHTML, like Gecko) Chrome/111.0.0.0 Safari/537.36" etag="YEldEUQFr4ElzDuX2zci" version="21.1.8" type="github" pages="7">
  <diagram name="第 1 页" id="-aVsNrnF_8gHf0IKY5F8">
    <mxGraphModel dx="1508" dy="1173" grid="0" gridSize="10" guides="1" tooltips="1" connect="1" arrows="1" fold="1" page="0" pageScale="1" pageWidth="827" pageHeight="1169" math="0" shadow="0">
      <root>
        <mxCell id="0" />
        <mxCell id="1" parent="0" />
        <mxCell id="UpychFrcX26uiWEWQqyb-2" value="图谱设计" style="rounded=0;whiteSpace=wrap;html=1;fontSize=16;" parent="1" vertex="1">
          <mxGeometry x="-634" y="-666" width="160" height="80" as="geometry" />
        </mxCell>
        <mxCell id="UpychFrcX26uiWEWQqyb-3" value="数据获取" style="rounded=0;whiteSpace=wrap;html=1;fontSize=16;" parent="1" vertex="1">
          <mxGeometry x="-637" y="-538" width="160" height="80" as="geometry" />
        </mxCell>
        <mxCell id="UpychFrcX26uiWEWQqyb-4" value="知识清洗" style="rounded=0;whiteSpace=wrap;html=1;fontSize=16;" parent="1" vertex="1">
          <mxGeometry x="-607" y="-417" width="160" height="80" as="geometry" />
        </mxCell>
        <mxCell id="UpychFrcX26uiWEWQqyb-5" value="知识存储" style="rounded=0;whiteSpace=wrap;html=1;fontSize=16;" parent="1" vertex="1">
          <mxGeometry x="-614" y="-304" width="160" height="80" as="geometry" />
        </mxCell>
      </root>
    </mxGraphModel>
  </diagram>
  <diagram id="ShY-G_PGuiU243fyy5fX" name="第 2 页">
    <mxGraphModel dx="1108" dy="773" grid="0" gridSize="10" guides="1" tooltips="1" connect="1" arrows="1" fold="1" page="0" pageScale="1" pageWidth="827" pageHeight="1169" math="0" shadow="0">
      <root>
        <mxCell id="0" />
        <mxCell id="1" parent="0" />
        <mxCell id="MyQw1LSfA7YkKkkmMyBF-1" value="数据收集" style="rounded=0;whiteSpace=wrap;html=1;fontSize=16;" parent="1" vertex="1">
          <mxGeometry x="45" y="-69" width="120" height="60" as="geometry" />
        </mxCell>
        <mxCell id="MyQw1LSfA7YkKkkmMyBF-2" value="知识清洗" style="rounded=0;whiteSpace=wrap;html=1;fontSize=16;" parent="1" vertex="1">
          <mxGeometry x="106" y="27" width="120" height="60" as="geometry" />
        </mxCell>
        <mxCell id="MyQw1LSfA7YkKkkmMyBF-3" value="图谱设计" style="rounded=0;whiteSpace=wrap;html=1;fontSize=16;" parent="1" vertex="1">
          <mxGeometry x="203" y="-69" width="120" height="60" as="geometry" />
        </mxCell>
        <mxCell id="MyQw1LSfA7YkKkkmMyBF-4" value="结构化采集" style="rounded=0;whiteSpace=wrap;html=1;fontSize=16;" parent="1" vertex="1">
          <mxGeometry x="-118" y="-25" width="120" height="60" as="geometry" />
        </mxCell>
        <mxCell id="MyQw1LSfA7YkKkkmMyBF-5" value="非结构化抽取" style="rounded=0;whiteSpace=wrap;html=1;fontSize=16;" parent="1" vertex="1">
          <mxGeometry x="-118" y="-94" width="120" height="60" as="geometry" />
        </mxCell>
        <mxCell id="MyQw1LSfA7YkKkkmMyBF-6" value="需求分析" style="rounded=0;whiteSpace=wrap;html=1;fontSize=16;" parent="1" vertex="1">
          <mxGeometry x="106" y="-231" width="120" height="60" as="geometry" />
        </mxCell>
        <mxCell id="MyQw1LSfA7YkKkkmMyBF-7" value="问答系统" style="rounded=0;whiteSpace=wrap;html=1;fontSize=16;" parent="1" vertex="1">
          <mxGeometry x="-148" y="361" width="120" height="60" as="geometry" />
        </mxCell>
        <mxCell id="MyQw1LSfA7YkKkkmMyBF-8" value="知识推理" style="rounded=0;whiteSpace=wrap;html=1;fontSize=16;" parent="1" vertex="1">
          <mxGeometry x="144" y="367" width="120" height="60" as="geometry" />
        </mxCell>
        <mxCell id="MyQw1LSfA7YkKkkmMyBF-9" value="知识检索" style="rounded=0;whiteSpace=wrap;html=1;fontSize=16;" parent="1" vertex="1">
          <mxGeometry x="-5" y="365" width="120" height="60" as="geometry" />
        </mxCell>
        <mxCell id="MyQw1LSfA7YkKkkmMyBF-10" value="&lt;h1&gt;需求层&lt;/h1&gt;" style="text;html=1;strokeColor=none;fillColor=none;spacing=5;spacingTop=-20;whiteSpace=wrap;overflow=hidden;rounded=0;fontSize=16;" parent="1" vertex="1">
          <mxGeometry x="495" y="-257" width="116" height="58" as="geometry" />
        </mxCell>
        <mxCell id="MyQw1LSfA7YkKkkmMyBF-11" value="&lt;h1&gt;应用层&lt;/h1&gt;" style="text;html=1;strokeColor=none;fillColor=none;spacing=5;spacingTop=-20;whiteSpace=wrap;overflow=hidden;rounded=0;fontSize=16;" parent="1" vertex="1">
          <mxGeometry x="484" y="300" width="110" height="61" as="geometry" />
        </mxCell>
        <mxCell id="MyQw1LSfA7YkKkkmMyBF-12" value="&lt;h1&gt;模型层&lt;/h1&gt;" style="text;html=1;strokeColor=none;fillColor=none;spacing=5;spacingTop=-20;whiteSpace=wrap;overflow=hidden;rounded=0;fontSize=16;" parent="1" vertex="1">
          <mxGeometry x="495" y="-50" width="113" height="58" as="geometry" />
        </mxCell>
        <mxCell id="MyQw1LSfA7YkKkkmMyBF-13" value="知识存储" style="rounded=0;whiteSpace=wrap;html=1;fontSize=16;" parent="1" vertex="1">
          <mxGeometry x="106" y="125" width="120" height="60" as="geometry" />
        </mxCell>
      </root>
    </mxGraphModel>
  </diagram>
  <diagram id="hBeZea8c1uOzhgBP8azI" name="第 3 页">
    <mxGraphModel dx="2150" dy="1222" grid="0" gridSize="10" guides="1" tooltips="1" connect="1" arrows="1" fold="1" page="0" pageScale="1" pageWidth="827" pageHeight="1169" math="0" shadow="0">
      <root>
        <mxCell id="0" />
        <mxCell id="1" parent="0" />
        <mxCell id="yZnVkMewNSaR4xHKhwfL-4" value="" style="edgeStyle=orthogonalEdgeStyle;rounded=0;orthogonalLoop=1;jettySize=auto;html=1;" parent="1" target="fXVN_lAQVUm-6JrW5ghk-9" edge="1">
          <mxGeometry relative="1" as="geometry">
            <mxPoint x="516.0000000000002" y="728" as="sourcePoint" />
          </mxGeometry>
        </mxCell>
        <mxCell id="UeAgpnM1mWXcEqRGMNX8-2" value="" style="edgeStyle=orthogonalEdgeStyle;rounded=0;orthogonalLoop=1;jettySize=auto;html=1;" edge="1" parent="1" source="ZFPpcaxokPsKFjSr4WAa-1" target="UeAgpnM1mWXcEqRGMNX8-1">
          <mxGeometry relative="1" as="geometry" />
        </mxCell>
        <mxCell id="ZFPpcaxokPsKFjSr4WAa-1" value="营养学知识图谱" style="shape=datastore;whiteSpace=wrap;html=1;fontSize=16;" parent="1" vertex="1">
          <mxGeometry x="394" y="569" width="138" height="74" as="geometry" />
        </mxCell>
        <mxCell id="yZnVkMewNSaR4xHKhwfL-23" style="edgeStyle=orthogonalEdgeStyle;rounded=0;orthogonalLoop=1;jettySize=auto;html=1;" parent="1" source="fXVN_lAQVUm-6JrW5ghk-4" target="fXVN_lAQVUm-6JrW5ghk-6" edge="1">
          <mxGeometry relative="1" as="geometry" />
        </mxCell>
        <mxCell id="fXVN_lAQVUm-6JrW5ghk-4" value="文本" style="shape=parallelogram;html=1;strokeWidth=2;perimeter=parallelogramPerimeter;whiteSpace=wrap;rounded=1;arcSize=12;size=0.23;" parent="1" vertex="1">
          <mxGeometry x="413" y="47" width="100" height="60" as="geometry" />
        </mxCell>
        <mxCell id="yZnVkMewNSaR4xHKhwfL-1" value="" style="edgeStyle=orthogonalEdgeStyle;rounded=0;orthogonalLoop=1;jettySize=auto;html=1;" parent="1" source="fXVN_lAQVUm-6JrW5ghk-6" target="fXVN_lAQVUm-6JrW5ghk-7" edge="1">
          <mxGeometry relative="1" as="geometry" />
        </mxCell>
        <mxCell id="fXVN_lAQVUm-6JrW5ghk-6" value="问句分类" style="rounded=1;whiteSpace=wrap;html=1;absoluteArcSize=1;arcSize=14;strokeWidth=2;" parent="1" vertex="1">
          <mxGeometry x="414" y="166" width="100" height="100" as="geometry" />
        </mxCell>
        <mxCell id="yZnVkMewNSaR4xHKhwfL-2" value="" style="edgeStyle=orthogonalEdgeStyle;rounded=0;orthogonalLoop=1;jettySize=auto;html=1;" parent="1" source="fXVN_lAQVUm-6JrW5ghk-7" target="fXVN_lAQVUm-6JrW5ghk-8" edge="1">
          <mxGeometry relative="1" as="geometry" />
        </mxCell>
        <mxCell id="fXVN_lAQVUm-6JrW5ghk-7" value="问句解析" style="rounded=1;whiteSpace=wrap;html=1;absoluteArcSize=1;arcSize=14;strokeWidth=2;" parent="1" vertex="1">
          <mxGeometry x="414" y="294" width="100" height="100" as="geometry" />
        </mxCell>
        <mxCell id="yZnVkMewNSaR4xHKhwfL-3" value="" style="edgeStyle=orthogonalEdgeStyle;rounded=0;orthogonalLoop=1;jettySize=auto;html=1;" parent="1" source="fXVN_lAQVUm-6JrW5ghk-8" target="ZFPpcaxokPsKFjSr4WAa-1" edge="1">
          <mxGeometry relative="1" as="geometry" />
        </mxCell>
        <mxCell id="fXVN_lAQVUm-6JrW5ghk-8" value="数据层转换" style="rounded=1;whiteSpace=wrap;html=1;absoluteArcSize=1;arcSize=14;strokeWidth=2;" parent="1" vertex="1">
          <mxGeometry x="414" y="425" width="100" height="100" as="geometry" />
        </mxCell>
        <mxCell id="yZnVkMewNSaR4xHKhwfL-5" value="" style="edgeStyle=orthogonalEdgeStyle;rounded=0;orthogonalLoop=1;jettySize=auto;html=1;" parent="1" source="fXVN_lAQVUm-6JrW5ghk-9" target="fXVN_lAQVUm-6JrW5ghk-14" edge="1">
          <mxGeometry relative="1" as="geometry" />
        </mxCell>
        <mxCell id="fXVN_lAQVUm-6JrW5ghk-9" value="返回结果" style="shape=parallelogram;html=1;strokeWidth=2;perimeter=parallelogramPerimeter;whiteSpace=wrap;rounded=1;arcSize=12;size=0.23;" parent="1" vertex="1">
          <mxGeometry x="557" y="698" width="100" height="60" as="geometry" />
        </mxCell>
        <mxCell id="fXVN_lAQVUm-6JrW5ghk-14" value="结束" style="strokeWidth=2;html=1;shape=mxgraph.flowchart.terminator;whiteSpace=wrap;" parent="1" vertex="1">
          <mxGeometry x="694" y="698" width="100" height="60" as="geometry" />
        </mxCell>
        <mxCell id="9OBgWkWcST0qyibQpQai-1" value="" style="edgeStyle=orthogonalEdgeStyle;rounded=0;orthogonalLoop=1;jettySize=auto;html=1;" parent="1" source="fXVN_lAQVUm-6JrW5ghk-15" target="yZnVkMewNSaR4xHKhwfL-11" edge="1">
          <mxGeometry relative="1" as="geometry" />
        </mxCell>
        <mxCell id="fXVN_lAQVUm-6JrW5ghk-15" value="开始" style="strokeWidth=2;html=1;shape=mxgraph.flowchart.terminator;whiteSpace=wrap;" parent="1" vertex="1">
          <mxGeometry x="413" y="-189" width="100" height="60" as="geometry" />
        </mxCell>
        <mxCell id="fXVN_lAQVUm-6JrW5ghk-16" value="" style="swimlane;startSize=0;" parent="1" vertex="1">
          <mxGeometry x="131" y="167" width="257" height="361" as="geometry">
            <mxRectangle x="125" y="231" width="50" height="44" as="alternateBounds" />
          </mxGeometry>
        </mxCell>
        <mxCell id="fXVN_lAQVUm-6JrW5ghk-17" value="classifier" style="whiteSpace=wrap;html=1;" parent="fXVN_lAQVUm-6JrW5ghk-16" vertex="1">
          <mxGeometry x="52" y="18" width="120" height="60" as="geometry" />
        </mxCell>
        <mxCell id="fXVN_lAQVUm-6JrW5ghk-19" value="db_access" style="whiteSpace=wrap;html=1;" parent="fXVN_lAQVUm-6JrW5ghk-16" vertex="1">
          <mxGeometry x="47" y="261" width="120" height="60" as="geometry" />
        </mxCell>
        <mxCell id="fXVN_lAQVUm-6JrW5ghk-18" value="parser" style="whiteSpace=wrap;html=1;" parent="fXVN_lAQVUm-6JrW5ghk-16" vertex="1">
          <mxGeometry x="52" y="129" width="120" height="60" as="geometry" />
        </mxCell>
        <mxCell id="yZnVkMewNSaR4xHKhwfL-12" value="" style="edgeStyle=orthogonalEdgeStyle;rounded=0;orthogonalLoop=1;jettySize=auto;html=1;" parent="1" source="yZnVkMewNSaR4xHKhwfL-11" target="fXVN_lAQVUm-6JrW5ghk-4" edge="1">
          <mxGeometry relative="1" as="geometry" />
        </mxCell>
        <mxCell id="yZnVkMewNSaR4xHKhwfL-11" value="选择输入方式" style="strokeWidth=2;html=1;shape=mxgraph.flowchart.decision;whiteSpace=wrap;" parent="1" vertex="1">
          <mxGeometry x="413" y="-91" width="100" height="100" as="geometry" />
        </mxCell>
        <mxCell id="yZnVkMewNSaR4xHKhwfL-18" value="" style="swimlane;startSize=0;" parent="1" vertex="1">
          <mxGeometry x="536" y="164" width="334" height="361" as="geometry" />
        </mxCell>
        <mxCell id="yZnVkMewNSaR4xHKhwfL-28" value="Ruler" style="rounded=0;whiteSpace=wrap;html=1;" parent="yZnVkMewNSaR4xHKhwfL-18" vertex="1">
          <mxGeometry x="47" y="8" width="92" height="43" as="geometry" />
        </mxCell>
        <mxCell id="yZnVkMewNSaR4xHKhwfL-27" value="WordKB" style="rounded=0;whiteSpace=wrap;html=1;" parent="yZnVkMewNSaR4xHKhwfL-18" vertex="1">
          <mxGeometry x="47" y="51" width="92" height="36" as="geometry" />
        </mxCell>
        <mxCell id="yZnVkMewNSaR4xHKhwfL-30" value="slot filling" style="rounded=0;whiteSpace=wrap;html=1;" parent="yZnVkMewNSaR4xHKhwfL-18" vertex="1">
          <mxGeometry x="47" y="263" width="116" height="56" as="geometry" />
        </mxCell>
        <mxCell id="KE8SI0QS8ufu0iY-cMED-3" value="Ruler" style="rounded=0;whiteSpace=wrap;html=1;" vertex="1" parent="yZnVkMewNSaR4xHKhwfL-18">
          <mxGeometry x="47" y="130" width="92" height="43" as="geometry" />
        </mxCell>
        <mxCell id="KE8SI0QS8ufu0iY-cMED-4" value="WordKB" style="rounded=0;whiteSpace=wrap;html=1;" vertex="1" parent="yZnVkMewNSaR4xHKhwfL-18">
          <mxGeometry x="47" y="173" width="92" height="36" as="geometry" />
        </mxCell>
        <mxCell id="yZnVkMewNSaR4xHKhwfL-26" value="Word&amp;nbsp; Expansion" style="rounded=0;whiteSpace=wrap;html=1;" parent="yZnVkMewNSaR4xHKhwfL-18" vertex="1">
          <mxGeometry x="184" y="8" width="120" height="60" as="geometry" />
        </mxCell>
        <mxCell id="yZnVkMewNSaR4xHKhwfL-29" value="Dependency&lt;br&gt;Parser" style="rounded=0;whiteSpace=wrap;html=1;" parent="yZnVkMewNSaR4xHKhwfL-18" vertex="1">
          <mxGeometry x="184" y="135" width="120" height="60" as="geometry" />
        </mxCell>
        <mxCell id="KE8SI0QS8ufu0iY-cMED-5" value="cypher&lt;br&gt;pattern" style="rounded=0;whiteSpace=wrap;html=1;" vertex="1" parent="yZnVkMewNSaR4xHKhwfL-18">
          <mxGeometry x="184" y="263" width="121" height="53" as="geometry" />
        </mxCell>
        <mxCell id="yZnVkMewNSaR4xHKhwfL-19" value="组件" style="text;html=1;strokeColor=none;fillColor=none;align=center;verticalAlign=middle;whiteSpace=wrap;rounded=0;" parent="1" vertex="1">
          <mxGeometry x="128" y="137" width="60" height="30" as="geometry" />
        </mxCell>
        <mxCell id="yZnVkMewNSaR4xHKhwfL-20" value="细节" style="text;html=1;strokeColor=none;fillColor=none;align=center;verticalAlign=middle;whiteSpace=wrap;rounded=0;" parent="1" vertex="1">
          <mxGeometry x="536" y="134" width="60" height="30" as="geometry" />
        </mxCell>
        <mxCell id="UeAgpnM1mWXcEqRGMNX8-1" value="答案生成" style="rounded=1;whiteSpace=wrap;html=1;absoluteArcSize=1;arcSize=14;strokeWidth=2;" vertex="1" parent="1">
          <mxGeometry x="413" y="678" width="100" height="100" as="geometry" />
        </mxCell>
      </root>
    </mxGraphModel>
  </diagram>
  <diagram id="LJXbF6zxr2FmMH6dtOrS" name="第 4 页">
    <mxGraphModel dx="1290" dy="549" grid="1" gridSize="10" guides="1" tooltips="1" connect="1" arrows="1" fold="1" page="1" pageScale="1" pageWidth="827" pageHeight="1169" math="0" shadow="0">
      <root>
        <mxCell id="0" />
        <mxCell id="1" parent="0" />
        <mxCell id="G-FsFjFUPJGHiwW5eZl0-12" style="edgeStyle=orthogonalEdgeStyle;rounded=0;orthogonalLoop=1;jettySize=auto;html=1;entryX=0;entryY=0.5;entryDx=0;entryDy=0;" parent="1" source="G-FsFjFUPJGHiwW5eZl0-1" target="G-FsFjFUPJGHiwW5eZl0-4" edge="1">
          <mxGeometry relative="1" as="geometry">
            <Array as="points">
              <mxPoint x="210" y="223" />
              <mxPoint x="210" y="273" />
            </Array>
          </mxGeometry>
        </mxCell>
        <mxCell id="G-FsFjFUPJGHiwW5eZl0-1" value="确定本体的目的和范围" style="rounded=1;whiteSpace=wrap;html=1;absoluteArcSize=1;arcSize=14;strokeWidth=2;" parent="1" vertex="1">
          <mxGeometry x="80" y="195" width="90" height="55" as="geometry" />
        </mxCell>
        <mxCell id="G-FsFjFUPJGHiwW5eZl0-9" value="" style="edgeStyle=orthogonalEdgeStyle;rounded=0;orthogonalLoop=1;jettySize=auto;html=1;" parent="1" source="G-FsFjFUPJGHiwW5eZl0-2" target="G-FsFjFUPJGHiwW5eZl0-4" edge="1">
          <mxGeometry relative="1" as="geometry" />
        </mxCell>
        <mxCell id="G-FsFjFUPJGHiwW5eZl0-2" value="收集领域知识并定义本体类和属性" style="rounded=1;whiteSpace=wrap;html=1;absoluteArcSize=1;arcSize=14;strokeWidth=2;" parent="1" vertex="1">
          <mxGeometry x="80" y="290" width="110" height="50" as="geometry" />
        </mxCell>
        <mxCell id="G-FsFjFUPJGHiwW5eZl0-10" value="" style="edgeStyle=orthogonalEdgeStyle;rounded=0;orthogonalLoop=1;jettySize=auto;html=1;" parent="1" source="G-FsFjFUPJGHiwW5eZl0-4" target="G-FsFjFUPJGHiwW5eZl0-6" edge="1">
          <mxGeometry relative="1" as="geometry" />
        </mxCell>
        <mxCell id="G-FsFjFUPJGHiwW5eZl0-4" value="利用python脚本构建本体" style="rounded=1;whiteSpace=wrap;html=1;absoluteArcSize=1;arcSize=14;strokeWidth=2;" parent="1" vertex="1">
          <mxGeometry x="230" y="240" width="90" height="65" as="geometry" />
        </mxCell>
        <mxCell id="G-FsFjFUPJGHiwW5eZl0-11" value="" style="edgeStyle=orthogonalEdgeStyle;rounded=0;orthogonalLoop=1;jettySize=auto;html=1;" parent="1" source="G-FsFjFUPJGHiwW5eZl0-6" target="G-FsFjFUPJGHiwW5eZl0-7" edge="1">
          <mxGeometry relative="1" as="geometry" />
        </mxCell>
        <mxCell id="G-FsFjFUPJGHiwW5eZl0-6" value="构建本体的层次结构" style="rounded=1;whiteSpace=wrap;html=1;absoluteArcSize=1;arcSize=14;strokeWidth=2;" parent="1" vertex="1">
          <mxGeometry x="350" y="242.5" width="70" height="60" as="geometry" />
        </mxCell>
        <mxCell id="G-FsFjFUPJGHiwW5eZl0-7" value="迭代更新" style="rounded=1;whiteSpace=wrap;html=1;absoluteArcSize=1;arcSize=14;strokeWidth=2;" parent="1" vertex="1">
          <mxGeometry x="450" y="241.25" width="60" height="62.5" as="geometry" />
        </mxCell>
      </root>
    </mxGraphModel>
  </diagram>
  <diagram id="GkbSoPdfUf3rzHWZLGtZ" name="第 5 页">
    <mxGraphModel dx="1290" dy="549" grid="1" gridSize="10" guides="1" tooltips="1" connect="1" arrows="1" fold="1" page="1" pageScale="1" pageWidth="827" pageHeight="1169" math="0" shadow="0">
      <root>
        <mxCell id="0" />
        <mxCell id="1" parent="0" />
        <mxCell id="Web-La_BElzHQ152j4_U-3" value="" style="edgeStyle=orthogonalEdgeStyle;rounded=0;orthogonalLoop=1;jettySize=auto;html=1;" parent="1" source="Web-La_BElzHQ152j4_U-1" target="Web-La_BElzHQ152j4_U-2" edge="1">
          <mxGeometry relative="1" as="geometry" />
        </mxCell>
        <mxCell id="Web-La_BElzHQ152j4_U-1" value="领域模式构建" style="rounded=1;whiteSpace=wrap;html=1;absoluteArcSize=1;arcSize=14;strokeWidth=2;" parent="1" vertex="1">
          <mxGeometry x="80" y="210" width="100" height="100" as="geometry" />
        </mxCell>
        <mxCell id="Web-La_BElzHQ152j4_U-5" value="" style="edgeStyle=orthogonalEdgeStyle;rounded=0;orthogonalLoop=1;jettySize=auto;html=1;" parent="1" source="Web-La_BElzHQ152j4_U-2" target="Web-La_BElzHQ152j4_U-4" edge="1">
          <mxGeometry relative="1" as="geometry" />
        </mxCell>
        <mxCell id="Web-La_BElzHQ152j4_U-2" value="领域数据抓取" style="rounded=1;whiteSpace=wrap;html=1;absoluteArcSize=1;arcSize=14;strokeWidth=2;" parent="1" vertex="1">
          <mxGeometry x="210" y="210" width="100" height="100" as="geometry" />
        </mxCell>
        <mxCell id="Web-La_BElzHQ152j4_U-12" value="" style="edgeStyle=orthogonalEdgeStyle;rounded=0;orthogonalLoop=1;jettySize=auto;html=1;" parent="1" source="Web-La_BElzHQ152j4_U-4" target="Web-La_BElzHQ152j4_U-11" edge="1">
          <mxGeometry relative="1" as="geometry" />
        </mxCell>
        <mxCell id="Web-La_BElzHQ152j4_U-4" value="领域知识抽取" style="rounded=1;whiteSpace=wrap;html=1;absoluteArcSize=1;arcSize=14;strokeWidth=2;" parent="1" vertex="1">
          <mxGeometry x="343.5" y="210" width="100" height="100" as="geometry" />
        </mxCell>
        <mxCell id="Web-La_BElzHQ152j4_U-15" style="edgeStyle=orthogonalEdgeStyle;rounded=0;orthogonalLoop=1;jettySize=auto;html=1;entryX=0.5;entryY=0;entryDx=0;entryDy=0;" parent="1" source="Web-La_BElzHQ152j4_U-6" target="Web-La_BElzHQ152j4_U-2" edge="1">
          <mxGeometry relative="1" as="geometry">
            <Array as="points">
              <mxPoint x="650" y="180" />
              <mxPoint x="260" y="180" />
            </Array>
          </mxGeometry>
        </mxCell>
        <mxCell id="Web-La_BElzHQ152j4_U-6" value="迭代更新" style="rounded=1;whiteSpace=wrap;html=1;absoluteArcSize=1;arcSize=14;strokeWidth=2;" parent="1" vertex="1">
          <mxGeometry x="600" y="210" width="100" height="100" as="geometry" />
        </mxCell>
        <mxCell id="Web-La_BElzHQ152j4_U-13" value="" style="edgeStyle=orthogonalEdgeStyle;rounded=0;orthogonalLoop=1;jettySize=auto;html=1;" parent="1" source="Web-La_BElzHQ152j4_U-11" target="Web-La_BElzHQ152j4_U-6" edge="1">
          <mxGeometry relative="1" as="geometry" />
        </mxCell>
        <mxCell id="Web-La_BElzHQ152j4_U-11" value="领域图谱构建" style="rounded=1;whiteSpace=wrap;html=1;absoluteArcSize=1;arcSize=14;strokeWidth=2;" parent="1" vertex="1">
          <mxGeometry x="470" y="210" width="100" height="100" as="geometry" />
        </mxCell>
      </root>
    </mxGraphModel>
  </diagram>
  <diagram id="8VUlFeHiWJ6Rw6-GlZpT" name="第 6 页">
    <mxGraphModel dx="1290" dy="493" grid="1" gridSize="10" guides="1" tooltips="1" connect="1" arrows="1" fold="1" page="1" pageScale="1" pageWidth="827" pageHeight="1169" math="0" shadow="0">
      <root>
        <mxCell id="0" />
        <mxCell id="1" parent="0" />
        <mxCell id="MeBpVOj78T8TwXGLnDvS-2" value="疾病" style="ellipse;whiteSpace=wrap;html=1;aspect=fixed;" parent="1" vertex="1">
          <mxGeometry x="150" y="120" width="80" height="80" as="geometry" />
        </mxCell>
        <mxCell id="MeBpVOj78T8TwXGLnDvS-3" value="人群" style="ellipse;whiteSpace=wrap;html=1;aspect=fixed;" parent="1" vertex="1">
          <mxGeometry x="320" y="130" width="80" height="80" as="geometry" />
        </mxCell>
        <mxCell id="MeBpVOj78T8TwXGLnDvS-4" value="食谱" style="ellipse;whiteSpace=wrap;html=1;aspect=fixed;" parent="1" vertex="1">
          <mxGeometry x="170" y="340" width="80" height="80" as="geometry" />
        </mxCell>
        <mxCell id="MeBpVOj78T8TwXGLnDvS-5" value="食物" style="ellipse;whiteSpace=wrap;html=1;aspect=fixed;" parent="1" vertex="1">
          <mxGeometry x="320" y="310" width="80" height="80" as="geometry" />
        </mxCell>
        <mxCell id="MeBpVOj78T8TwXGLnDvS-7" value="" style="endArrow=none;html=1;rounded=0;" parent="1" source="MeBpVOj78T8TwXGLnDvS-5" target="MeBpVOj78T8TwXGLnDvS-3" edge="1">
          <mxGeometry width="50" height="50" relative="1" as="geometry">
            <mxPoint x="290" y="290" as="sourcePoint" />
            <mxPoint x="340" y="240" as="targetPoint" />
          </mxGeometry>
        </mxCell>
        <mxCell id="MeBpVOj78T8TwXGLnDvS-8" value="" style="endArrow=none;html=1;rounded=0;entryX=0;entryY=1;entryDx=0;entryDy=0;" parent="1" source="MeBpVOj78T8TwXGLnDvS-4" target="MeBpVOj78T8TwXGLnDvS-3" edge="1">
          <mxGeometry width="50" height="50" relative="1" as="geometry">
            <mxPoint x="240" y="280" as="sourcePoint" />
            <mxPoint x="290" y="230" as="targetPoint" />
          </mxGeometry>
        </mxCell>
        <mxCell id="MeBpVOj78T8TwXGLnDvS-9" value="" style="endArrow=none;html=1;rounded=0;entryX=0.043;entryY=0.777;entryDx=0;entryDy=0;entryPerimeter=0;" parent="1" source="MeBpVOj78T8TwXGLnDvS-4" target="MeBpVOj78T8TwXGLnDvS-5" edge="1">
          <mxGeometry width="50" height="50" relative="1" as="geometry">
            <mxPoint x="210" y="420" as="sourcePoint" />
            <mxPoint x="280.71067811865476" y="370" as="targetPoint" />
          </mxGeometry>
        </mxCell>
        <mxCell id="MeBpVOj78T8TwXGLnDvS-10" value="" style="endArrow=none;html=1;rounded=0;entryX=0.5;entryY=1;entryDx=0;entryDy=0;exitX=0.392;exitY=-0.037;exitDx=0;exitDy=0;exitPerimeter=0;" parent="1" source="MeBpVOj78T8TwXGLnDvS-4" target="MeBpVOj78T8TwXGLnDvS-2" edge="1">
          <mxGeometry width="50" height="50" relative="1" as="geometry">
            <mxPoint x="100" y="310" as="sourcePoint" />
            <mxPoint x="150" y="260" as="targetPoint" />
          </mxGeometry>
        </mxCell>
        <mxCell id="MeBpVOj78T8TwXGLnDvS-11" value="" style="endArrow=none;html=1;rounded=0;entryX=0;entryY=0;entryDx=0;entryDy=0;exitX=1.003;exitY=0.688;exitDx=0;exitDy=0;exitPerimeter=0;" parent="1" source="MeBpVOj78T8TwXGLnDvS-2" target="MeBpVOj78T8TwXGLnDvS-5" edge="1">
          <mxGeometry width="50" height="50" relative="1" as="geometry">
            <mxPoint x="190" y="190" as="sourcePoint" />
            <mxPoint x="240" y="140" as="targetPoint" />
          </mxGeometry>
        </mxCell>
        <mxCell id="MeBpVOj78T8TwXGLnDvS-17" value="disease_name&lt;br&gt;daily_health_care&lt;br&gt;......" style="whiteSpace=wrap;html=1;aspect=fixed;" parent="1" vertex="1">
          <mxGeometry x="20" y="100" width="110" height="110" as="geometry" />
        </mxCell>
        <mxCell id="MeBpVOj78T8TwXGLnDvS-18" value="name&lt;br&gt;method&lt;br&gt;type&lt;br&gt;......." style="whiteSpace=wrap;html=1;aspect=fixed;" parent="1" vertex="1">
          <mxGeometry x="50" y="330" width="80" height="80" as="geometry" />
        </mxCell>
        <mxCell id="MeBpVOj78T8TwXGLnDvS-19" value="category&lt;br&gt;name&lt;br&gt;fat&lt;br&gt;vitamin&lt;br&gt;......" style="whiteSpace=wrap;html=1;aspect=fixed;" parent="1" vertex="1">
          <mxGeometry x="430" y="280" width="80" height="80" as="geometry" />
        </mxCell>
        <mxCell id="MeBpVOj78T8TwXGLnDvS-20" value="name&lt;br&gt;feature&lt;br&gt;......" style="whiteSpace=wrap;html=1;aspect=fixed;" parent="1" vertex="1">
          <mxGeometry x="430" y="120" width="70" height="70" as="geometry" />
        </mxCell>
        <mxCell id="MeBpVOj78T8TwXGLnDvS-21" value="" style="endArrow=none;dashed=1;html=1;rounded=0;entryX=1;entryY=0.5;entryDx=0;entryDy=0;exitX=0;exitY=0.5;exitDx=0;exitDy=0;" parent="1" source="MeBpVOj78T8TwXGLnDvS-2" target="MeBpVOj78T8TwXGLnDvS-17" edge="1">
          <mxGeometry width="50" height="50" relative="1" as="geometry">
            <mxPoint x="160" y="120" as="sourcePoint" />
            <mxPoint x="210" y="70" as="targetPoint" />
          </mxGeometry>
        </mxCell>
        <mxCell id="MeBpVOj78T8TwXGLnDvS-22" value="" style="endArrow=none;dashed=1;html=1;rounded=0;entryX=0;entryY=0.5;entryDx=0;entryDy=0;exitX=1;exitY=0.5;exitDx=0;exitDy=0;" parent="1" source="MeBpVOj78T8TwXGLnDvS-3" target="MeBpVOj78T8TwXGLnDvS-20" edge="1">
          <mxGeometry width="50" height="50" relative="1" as="geometry">
            <mxPoint x="430" y="200" as="sourcePoint" />
            <mxPoint x="480" y="150" as="targetPoint" />
          </mxGeometry>
        </mxCell>
        <mxCell id="MeBpVOj78T8TwXGLnDvS-23" value="" style="endArrow=none;dashed=1;html=1;rounded=0;exitX=1;exitY=0.5;exitDx=0;exitDy=0;entryX=0;entryY=0.5;entryDx=0;entryDy=0;" parent="1" source="MeBpVOj78T8TwXGLnDvS-5" target="MeBpVOj78T8TwXGLnDvS-19" edge="1">
          <mxGeometry width="50" height="50" relative="1" as="geometry">
            <mxPoint x="410" y="520" as="sourcePoint" />
            <mxPoint x="460" y="470" as="targetPoint" />
          </mxGeometry>
        </mxCell>
        <mxCell id="MeBpVOj78T8TwXGLnDvS-24" value="" style="endArrow=none;dashed=1;html=1;rounded=0;entryX=0.015;entryY=0.693;entryDx=0;entryDy=0;entryPerimeter=0;exitX=1;exitY=0.5;exitDx=0;exitDy=0;" parent="1" source="MeBpVOj78T8TwXGLnDvS-18" target="MeBpVOj78T8TwXGLnDvS-4" edge="1">
          <mxGeometry width="50" height="50" relative="1" as="geometry">
            <mxPoint x="170" y="500" as="sourcePoint" />
            <mxPoint x="220" y="450" as="targetPoint" />
          </mxGeometry>
        </mxCell>
      </root>
    </mxGraphModel>
  </diagram>
  <diagram id="XX4r4bisvVmBk_VTX6Yp" name="第 7 页">
    <mxGraphModel dx="1180" dy="715" grid="1" gridSize="10" guides="1" tooltips="1" connect="1" arrows="1" fold="1" page="1" pageScale="1" pageWidth="827" pageHeight="1169" math="0" shadow="0">
      <root>
        <mxCell id="0" />
        <mxCell id="1" parent="0" />
        <mxCell id="vI-7XoYcLD6En5Uq-zdk-3" value="" style="edgeStyle=orthogonalEdgeStyle;rounded=0;orthogonalLoop=1;jettySize=auto;html=1;" edge="1" parent="1" source="vI-7XoYcLD6En5Uq-zdk-1" target="vI-7XoYcLD6En5Uq-zdk-2">
          <mxGeometry relative="1" as="geometry" />
        </mxCell>
        <mxCell id="vI-7XoYcLD6En5Uq-zdk-14" value="" style="edgeStyle=orthogonalEdgeStyle;rounded=0;orthogonalLoop=1;jettySize=auto;html=1;" edge="1" parent="1" source="vI-7XoYcLD6En5Uq-zdk-1" target="vI-7XoYcLD6En5Uq-zdk-2">
          <mxGeometry relative="1" as="geometry" />
        </mxCell>
        <mxCell id="vI-7XoYcLD6En5Uq-zdk-1" value="确定领域网站站点" style="rounded=1;whiteSpace=wrap;html=1;absoluteArcSize=1;arcSize=14;strokeWidth=2;" vertex="1" parent="1">
          <mxGeometry x="130" y="180" width="100" height="100" as="geometry" />
        </mxCell>
        <mxCell id="vI-7XoYcLD6En5Uq-zdk-7" value="" style="edgeStyle=orthogonalEdgeStyle;rounded=0;orthogonalLoop=1;jettySize=auto;html=1;" edge="1" parent="1" source="vI-7XoYcLD6En5Uq-zdk-2" target="vI-7XoYcLD6En5Uq-zdk-6">
          <mxGeometry relative="1" as="geometry" />
        </mxCell>
        <mxCell id="vI-7XoYcLD6En5Uq-zdk-2" value="定义爬虫" style="rounded=1;whiteSpace=wrap;html=1;absoluteArcSize=1;arcSize=14;strokeWidth=2;" vertex="1" parent="1">
          <mxGeometry x="130" y="310" width="100" height="100" as="geometry" />
        </mxCell>
        <mxCell id="vI-7XoYcLD6En5Uq-zdk-28" style="edgeStyle=orthogonalEdgeStyle;rounded=0;orthogonalLoop=1;jettySize=auto;html=1;entryX=0;entryY=0.5;entryDx=0;entryDy=0;" edge="1" parent="1" source="vI-7XoYcLD6En5Uq-zdk-6" target="vI-7XoYcLD6En5Uq-zdk-25">
          <mxGeometry relative="1" as="geometry" />
        </mxCell>
        <mxCell id="vI-7XoYcLD6En5Uq-zdk-29" style="edgeStyle=orthogonalEdgeStyle;rounded=0;orthogonalLoop=1;jettySize=auto;html=1;entryX=0;entryY=0.5;entryDx=0;entryDy=0;" edge="1" parent="1" source="vI-7XoYcLD6En5Uq-zdk-6" target="vI-7XoYcLD6En5Uq-zdk-26">
          <mxGeometry relative="1" as="geometry" />
        </mxCell>
        <mxCell id="vI-7XoYcLD6En5Uq-zdk-30" style="edgeStyle=orthogonalEdgeStyle;rounded=0;orthogonalLoop=1;jettySize=auto;html=1;entryX=0;entryY=0.5;entryDx=0;entryDy=0;" edge="1" parent="1" source="vI-7XoYcLD6En5Uq-zdk-6" target="vI-7XoYcLD6En5Uq-zdk-27">
          <mxGeometry relative="1" as="geometry" />
        </mxCell>
        <mxCell id="vI-7XoYcLD6En5Uq-zdk-6" value="发送请求" style="rounded=1;whiteSpace=wrap;html=1;absoluteArcSize=1;arcSize=14;strokeWidth=2;" vertex="1" parent="1">
          <mxGeometry x="264" y="310" width="100" height="100" as="geometry" />
        </mxCell>
        <mxCell id="vI-7XoYcLD6En5Uq-zdk-16" value="" style="edgeStyle=orthogonalEdgeStyle;rounded=0;orthogonalLoop=1;jettySize=auto;html=1;" edge="1" parent="1" source="vI-7XoYcLD6En5Uq-zdk-12" target="vI-7XoYcLD6En5Uq-zdk-15">
          <mxGeometry relative="1" as="geometry" />
        </mxCell>
        <mxCell id="vI-7XoYcLD6En5Uq-zdk-12" value="数据处理" style="rounded=1;whiteSpace=wrap;html=1;absoluteArcSize=1;arcSize=14;strokeWidth=2;" vertex="1" parent="1">
          <mxGeometry x="630" y="310" width="100" height="100" as="geometry" />
        </mxCell>
        <mxCell id="vI-7XoYcLD6En5Uq-zdk-15" value="JSON" style="shape=parallelogram;perimeter=parallelogramPerimeter;whiteSpace=wrap;html=1;fixedSize=1;rounded=1;arcSize=14;strokeWidth=2;" vertex="1" parent="1">
          <mxGeometry x="780" y="330" width="120" height="60" as="geometry" />
        </mxCell>
        <mxCell id="vI-7XoYcLD6En5Uq-zdk-31" style="edgeStyle=orthogonalEdgeStyle;rounded=0;orthogonalLoop=1;jettySize=auto;html=1;entryX=0;entryY=0.5;entryDx=0;entryDy=0;" edge="1" parent="1" source="vI-7XoYcLD6En5Uq-zdk-25" target="vI-7XoYcLD6En5Uq-zdk-12">
          <mxGeometry relative="1" as="geometry">
            <mxPoint x="650" y="365" as="targetPoint" />
          </mxGeometry>
        </mxCell>
        <mxCell id="vI-7XoYcLD6En5Uq-zdk-25" value="疾病页面解析器" style="shape=process;whiteSpace=wrap;html=1;backgroundOutline=1;" vertex="1" parent="1">
          <mxGeometry x="430" y="240" width="120" height="60" as="geometry" />
        </mxCell>
        <mxCell id="vI-7XoYcLD6En5Uq-zdk-32" style="edgeStyle=orthogonalEdgeStyle;rounded=0;orthogonalLoop=1;jettySize=auto;html=1;entryX=0;entryY=0.5;entryDx=0;entryDy=0;" edge="1" parent="1" source="vI-7XoYcLD6En5Uq-zdk-26" target="vI-7XoYcLD6En5Uq-zdk-12">
          <mxGeometry relative="1" as="geometry" />
        </mxCell>
        <mxCell id="vI-7XoYcLD6En5Uq-zdk-26" value="食物页面解析器" style="shape=process;whiteSpace=wrap;html=1;backgroundOutline=1;" vertex="1" parent="1">
          <mxGeometry x="430" y="330" width="120" height="60" as="geometry" />
        </mxCell>
        <mxCell id="vI-7XoYcLD6En5Uq-zdk-34" style="edgeStyle=orthogonalEdgeStyle;rounded=0;orthogonalLoop=1;jettySize=auto;html=1;entryX=0;entryY=0.5;entryDx=0;entryDy=0;" edge="1" parent="1" source="vI-7XoYcLD6En5Uq-zdk-27" target="vI-7XoYcLD6En5Uq-zdk-12">
          <mxGeometry relative="1" as="geometry" />
        </mxCell>
        <mxCell id="vI-7XoYcLD6En5Uq-zdk-27" value="食谱页面解析器" style="shape=process;whiteSpace=wrap;html=1;backgroundOutline=1;" vertex="1" parent="1">
          <mxGeometry x="430" y="415" width="120" height="60" as="geometry" />
        </mxCell>
      </root>
    </mxGraphModel>
  </diagram>
</mxfile>
